<?xml version="1.0" encoding="UTF-8"?>
<svg width="278px" height="279px" viewBox="0 0 278 279" version="1.1" xmlns="http://www.w3.org/2000/svg" xmlns:xlink="http://www.w3.org/1999/xlink">
    <!-- Generator: Sketch 60.1 (88133) - https://sketch.com -->
    <title>编组 20备份 3</title>
    <desc>Created with Sketch.</desc>
    <defs>
        <linearGradient x1="-1.11022302e-14%" y1="50%" x2="86.8164062%" y2="50%" id="linearGradient-1">
            <stop stop-color="#A94FF6" offset="0%"></stop>
            <stop stop-color="#5B22EC" offset="100%"></stop>
        </linearGradient>
    </defs>
    <g id="页面-1" stroke="none" stroke-width="1" fill="none" fill-rule="evenodd">
        <g id="logo" transform="translate(-66.000000, -62.000000)">
            <g id="编组-20备份-3" transform="translate(66.000000, 62.000000)">
                <g id="编组备份-43" fill="url(#linearGradient-1)">
                    <path d="M138.599918,0 C154.960424,0 168.284591,13.3241674 168.284591,29.6846731 C168.284591,43.583552 158.668331,55.2910581 145.743539,58.4994647 L145.7441,69.7244895 C182.278727,70.6696133 213.202526,78.9129812 235.584139,93.7506753 C248.801141,102.514605 259.053248,113.52047 266.018966,126.496521 C273.377621,140.219883 277.128392,156.151213 277.128392,173.882884 C277.128392,191.614556 273.377621,207.545885 266.018966,221.269248 C259.053248,234.245299 248.801141,245.251164 235.584139,254.015094 C211.757812,269.810548 178.250925,278.132884 138.599918,278.132884 C98.984632,278.132884 65.442023,269.810548 41.615697,254.015094 C28.3986945,245.251164 18.1465872,234.245299 11.1808697,221.269248 C3.82221423,207.545885 0.0714432566,191.614556 0.0714432566,173.882884 C0.0714432566,156.151213 3.82221423,140.219883 11.1808697,126.496521 C18.1465872,113.52047 28.3986945,102.514605 41.615697,93.7506753 C63.9637665,78.9448816 94.9170756,70.6734733 131.455429,69.7248398 L131.456296,58.4994647 C118.531504,55.2910581 108.915245,43.583552 108.915245,29.6846731 C108.915245,13.3241674 122.239412,0 138.599918,0 Z M184.246443,118.282884 L93.8964433,118.282884 C63.1894112,118.282884 38.2964433,143.175852 38.2964433,173.882884 C38.2964433,204.589917 63.1894112,229.482884 93.8964433,229.482884 L93.8964433,229.482884 L184.246443,229.482884 C214.953475,229.482884 239.846443,204.589917 239.846443,173.882884 C239.846443,143.175852 214.953475,118.282884 184.246443,118.282884 L184.246443,118.282884 Z M138.599918,14.2529297 C130.09817,14.2529297 123.203896,21.1472039 123.203896,29.6489515 C123.203896,38.150699 130.09817,45.0449733 138.599918,45.0449733 C147.101665,45.0449733 153.99594,38.150699 153.99594,29.6489515 C153.99594,21.1472039 147.101665,14.2529297 138.599918,14.2529297 Z" id="形状结合"></path>
                </g>
                <g id="编组-18" transform="translate(79.925000, 135.525000)">
                    <path d="M21.20445,74.6847 L27.115425,58.9221 L47.756925,58.9221 L52.9173,74.6847 L74.87235,74.6847 L50.2902,3.471525 C49.85235,2.220525 49.1643,1.3291875 48.22605,0.7975125 C47.2878,0.2658375 46.0368,9.09494702e-13 44.47305,9.09494702e-13 L44.47305,9.09494702e-13 L29.742525,9.09494702e-13 L1.13686838e-13,74.6847 L21.20445,74.6847 Z M42.315075,42.502725 L33.21405,42.502725 L38.09295,29.554875 L42.315075,42.502725 Z" id="A" fill="#712EEF" fill-rule="nonzero"></path>
                    <path d="M54.5920879,15.9075718 L50.2902,3.471525 C49.85235,2.220525 49.1643,1.3291875 48.22605,0.7975125 C47.2878,0.2658375 46.0368,8.85513884e-13 44.47305,8.85513884e-13 L29.742525,8.85513884e-13 L23.4074744,15.9075718 L54.5920879,15.9075718 Z" id="A" fill="#FBAA53" fill-rule="nonzero"></path>
                    <polygon id="I" fill="#712EEF" fill-rule="nonzero" points="103.009425 74.778525 103.009425 22.74735 83.4 22.74735 83.4 74.778525"></polygon>
                    <polygon id="矩形" fill="#FBAA53" points="83.4 22.74735 93.2047125 22.74735 93.2047125 40.12235 83.4 40.12235"></polygon>
                    <rect id="矩形备份-13" fill="#2AD4C8" x="93.2047125" y="57.403525" width="9.8047125" height="17.375"></rect>
                    <polygon id="I" fill="#2AD4C8" fill-rule="nonzero" points="103.009425 15.7372968 103.009425 4.02344824e-13 83.4 4.02344824e-13 83.4 15.7372968"></polygon>
                    <polygon id="路径-3" fill="#FBAA53" points="38.09295 29.554875 59.4102057 29.554875 63.7382496 42.502725 42.315075 42.502725"></polygon>
                    <polygon id="路径-4" fill="#2AD4C8" points="42.315075 42.502725 47.756925 58.9221 6.29217888 58.9221 12.7561304 42.502725"></polygon>
                    <animateTransform attributeName="transform" type="translate" values="80 125; 80 145 ; 80 125" dur="1s" begin="0s" repeatCount="indefinite" />
                </g>
            </g>
        </g>
    </g>
</svg>