<?xml version="1.0" encoding="utf-8"?>
<!-- Generator: Adobe Illustrator 24.0.1, SVG Export Plug-In . SVG Version: 6.00 Build 0)  -->
<svg version="1.1" id="图层_1" xmlns="http://www.w3.org/2000/svg" xmlns:xlink="http://www.w3.org/1999/xlink" x="0px" y="0px"
	 viewBox="0 0 278 279" style="enable-background:new 0 0 278 279;" xml:space="preserve">
<style type="text/css">
	.st0{fill:#712EEF;}
	.st1{fill:#FBAA53;}
	.st2{fill-rule:evenodd;clip-rule:evenodd;fill:#FBAA53;}
	.st3{fill-rule:evenodd;clip-rule:evenodd;fill:#2AD4C8;}
	.st4{fill:#2AD4C8;}
</style>
<title>编组 20备份 3</title>
<desc>Created with Sketch.</desc>
<g id="页面-1">
	<g id="logo" transform="translate(-66.000000, -62.000000)">
		<g id="编组-20备份-3" transform="translate(66.000000, 62.000000)">
			<g id="编组-18" transform="translate(79.925000, 135.525000)">
				<path id="A" class="st0" d="M-11.7,100.2L2.1,63.3h48.1l12.2,36.9h51.4L56.3-66.2c-0.9-3-2.6-4.9-4.9-6.3
					c-2.1-1.2-5.1-1.9-8.6-1.9l0,0H8.1l-69.4,174.6H-11.7z M37.6,25H16.3L27.8-5.2L37.6,25z"/>
				<path id="A_1_" class="st1" d="M66.3-37.2l-10-29c-0.9-3-2.6-4.9-4.9-6.3c-2.1-1.2-5.1-1.9-8.6-1.9H8.1L-6.6-37.2H66.3z"/>
				<polygon id="I" class="st0" points="179.4,100.5 179.4,-21.3 133.6,-21.3 133.6,100.5 				"/>
				<polygon id="矩形" class="st2" points="133.6,-21.3 156.5,-21.3 156.5,19.4 133.6,19.4 				"/>
				<rect id="矩形备份-13" x="156.5" y="59.8" class="st3" width="22.9" height="40.7"/>
				<polygon id="I_1_" class="st4" points="179.4,-37.7 179.4,-74.4 133.6,-74.4 133.6,-37.7 				"/>
				<polygon id="路径-3" class="st2" points="27.8,-5.2 77.5,-5.2 87.6,25 37.6,25 				"/>
				<polygon id="路径-4" class="st3" points="37.6,25 50.4,63.3 -46.6,63.3 -31.4,25 				"/>
				
					<animateTransform  accumulate="none" additive="replace" attributeName="transform" begin="0s" calcMode="linear" dur="1s" fill="remove" repeatCount="indefinite" restart="always" type="translate" values="80 125; 80 145 ; 80 125">
					</animateTransform>
			</g>
		</g>
	</g>
</g>
</svg>
